# Blender v3.0.1 OBJ File: 'house1.blend'
# www.blender.org
o Cube_Cube.001
v -1.431077 0.000000 -1.151077
v -1.431077 0.000000 1.151077
v 1.431077 0.000000 -1.151077
v 1.431077 0.000000 1.151077
v -1.400000 0.811973 -1.120000
v -1.400000 0.811973 1.120000
v 1.400000 0.811973 1.120000
v 1.400000 0.811973 -1.120000
v -1.474643 0.811973 -1.194643
v -1.474643 0.811973 1.194643
v 1.474643 0.811973 1.194643
v 1.474643 0.811973 -1.194643
v -0.135768 1.824249 1.120000
v 0.135768 1.824249 1.120000
v 0.863629 1.345319 1.120000
v -0.863629 1.345319 1.120000
v -0.556552 1.547374 1.120000
v 0.556552 1.547374 1.120000
v -1.371977 1.010827 1.120000
v 1.371977 1.010827 1.120000
v -0.135768 1.824249 -1.120000
v 0.135768 1.824249 -1.120000
v -0.556552 1.547374 -1.120000
v 0.556552 1.547374 -1.120000
v -0.556552 1.547374 -1.186826
v 0.556552 1.547374 -1.186826
v -1.371977 1.010827 -1.194643
v 1.371977 1.010827 -1.194643
v 1.474643 0.943273 -1.194643
v -1.474643 0.943273 -1.194643
v -0.863629 1.345319 -1.186826
v 0.863629 1.345319 -1.186826
v 1.474643 0.943273 1.194643
v 1.371977 1.010827 1.194643
v 0.556552 1.547374 1.186826
v -0.556552 1.547374 1.186826
v -1.371977 1.010827 1.194643
v -1.474643 0.943273 1.194643
v -0.863629 1.345319 1.186826
v 0.863629 1.345319 1.186826
v -0.863629 1.345319 -1.120000
v 0.863629 1.345319 -1.120000
v 1.371977 1.010827 -1.120000
v -1.371977 1.010827 -1.120000
v -1.574528 0.877548 -1.253636
v -1.672700 1.017752 -1.253636
v -1.574528 0.877549 1.253636
v -1.672700 1.017753 1.253636
v 1.574528 0.877548 -1.253636
v 1.672700 1.017752 -1.253636
v 1.574528 0.877549 1.253636
v 1.672700 1.017753 1.253636
v 0.135768 1.824249 1.253636
v -0.135768 1.824249 1.253636
v -0.135768 1.995407 1.253636
v 0.135768 1.995407 1.253636
v -0.135768 1.824249 -1.253636
v 0.135768 1.824249 -1.253636
v 0.135768 1.995407 -1.253636
v -0.135768 1.995407 -1.253636
v -1.400000 0.186021 -1.120000
v -1.400000 0.372043 -1.120000
v -1.400000 0.558064 -1.120000
v -1.400000 0.744085 -1.120000
v -1.400000 0.186021 1.120000
v -1.400000 0.372043 1.120000
v -1.400000 0.558064 1.120000
v -1.400000 0.744085 1.120000
v 1.400000 0.186021 1.120000
v 1.400000 0.372043 1.120000
v 1.400000 0.558064 1.120000
v 1.400000 0.744085 1.120000
v 1.400000 0.186021 -1.120000
v 1.400000 0.372043 -1.120000
v 1.400000 0.558064 -1.120000
v 1.400000 0.744085 -1.120000
v -1.431077 0.186021 -1.151077
v -1.431077 0.186021 1.151077
v 1.431077 0.186021 1.151077
v 1.431077 0.186021 -1.151077
v -1.053388 0.000000 -1.051237
v -0.238201 0.000000 -1.051237
v 0.243489 0.000000 -1.151077
v 1.055671 0.000000 -1.151077
v -1.076771 0.000000 1.151077
v -0.234103 0.000000 1.151077
v 0.243489 0.000000 1.151077
v 1.076771 0.000000 1.151077
v -1.109551 0.811973 -1.194643
v -0.250901 0.811973 -1.194643
v 0.250901 0.811973 -1.194643
v 1.109551 0.811973 -1.194643
v -1.053388 0.811973 -1.051237
v -0.238201 0.811973 -1.051237
v 0.238201 0.811973 -1.120000
v 1.053388 0.811973 -1.120000
v -1.053388 0.811973 1.120000
v -0.238201 0.811973 1.120000
v 0.238201 0.811973 1.120000
v 1.053388 0.811973 1.120000
v -1.109551 0.811973 1.194643
v -0.250901 0.811973 1.194643
v 0.250901 0.811973 1.194643
v 1.109551 0.811973 1.194643
v -1.053388 0.186021 1.120000
v -0.238201 0.186021 1.120000
v 0.238201 0.186021 1.120000
v 1.053388 0.186021 1.120000
v -1.053388 0.372043 1.120000
v -0.238201 0.372043 1.120000
v 0.238201 0.372043 1.120000
v 1.053388 0.372043 1.120000
v -1.053388 0.558064 1.120000
v -0.238201 0.558064 1.120000
v 0.238201 0.558064 1.120000
v 1.053388 0.558064 1.120000
v -1.053388 0.744085 1.120000
v -0.238201 0.744085 1.120000
v 0.238201 0.744085 1.120000
v 1.053388 0.744085 1.120000
v 1.053388 0.186021 -1.120000
v 0.238201 0.186021 -1.120000
v -0.238201 0.186021 -1.051237
v -1.053388 0.186021 -1.051237
v 1.053388 0.372043 -1.120000
v 0.238201 0.372043 -1.120000
v -0.238201 0.372043 -1.051237
v -1.053388 0.372043 -1.051237
v 1.053388 0.558064 -1.120000
v 0.238201 0.558064 -1.120000
v -0.238201 0.558064 -1.051237
v -1.053388 0.558064 -1.051237
v 1.053388 0.744085 -1.120000
v 0.238201 0.744085 -1.120000
v -0.238201 0.744085 -1.051237
v -1.053388 0.744085 -1.051237
v -1.076771 0.186021 1.151077
v -0.243489 0.186021 1.151077
v 0.243489 0.186021 1.151077
v 1.076771 0.186021 1.151077
v 1.055671 0.186021 -1.151077
v 0.243489 0.186021 -1.151077
v -0.228929 0.000000 -1.151077
v -0.241230 0.811973 -1.194643
v -0.229019 0.811973 -1.120000
v -0.229019 0.811973 1.120000
v -0.241230 0.811973 1.194643
v -0.229019 0.186021 1.120000
v -0.229019 0.372043 1.120000
v -0.229019 0.558064 1.120000
v -0.229019 0.744085 1.120000
v -0.229019 0.186021 -1.120000
v -0.229019 0.372043 -1.120000
v -0.229019 0.558064 -1.120000
v -0.229019 0.744085 -1.120000
v -0.234103 0.186021 1.151077
v -0.228929 0.186021 -1.151077
v -1.059652 0.186021 -1.120000
v -1.059652 0.372043 -1.120000
v -1.059652 0.558064 -1.120000
v -1.059652 0.744085 -1.120000
v -1.059865 0.186021 -1.151077
v -1.116149 0.811973 -1.194643
v -1.059652 0.811973 -1.120000
v -1.059652 0.811973 1.120000
v -1.116149 0.811973 1.194643
v -1.059652 0.186021 1.120000
v -1.059652 0.372043 1.120000
v -1.059652 0.558064 1.120000
v -1.059652 0.744085 1.120000
v -1.059865 0.000000 -1.151077
v -1.083174 0.186021 1.151077
v 1.019883 0.401294 -0.920663
v 0.271706 0.401294 -0.920663
v 1.019883 0.558064 -0.920663
v 0.271706 0.558064 -0.920663
v 1.019883 0.714834 -0.920663
v 0.271706 0.714834 -0.920663
v 1.053388 0.372043 -1.148587
v 0.238201 0.372043 -1.148587
v 1.019883 0.401294 -1.148587
v 1.053388 0.744085 -1.148587
v 0.238201 0.744085 -1.148587
v 1.053388 0.558064 -1.148587
v 0.238201 0.558064 -1.148587
v 0.271706 0.401294 -1.148587
v 1.019883 0.714834 -1.148587
v 0.271706 0.714834 -1.148587
v 1.019883 0.558064 -1.148587
v 0.271706 0.558064 -1.148587
v -0.930712 1.742058 -0.604147
v -0.930712 1.742058 -0.340843
v -0.694436 1.742058 -0.604147
v -0.694436 1.742058 -0.340843
v -0.930712 1.484930 -0.604147
v -0.930712 1.484930 -0.340843
v -0.694436 1.635227 -0.340843
v -0.694436 1.635227 -0.604147
v -0.930712 1.742058 0.345058
v -0.930712 1.742058 0.608363
v -0.694436 1.742058 0.345058
v -0.694436 1.742058 0.608363
v -0.930712 1.484930 0.345058
v -0.930712 1.484930 0.608363
v -0.694436 1.635227 0.608363
v -0.694436 1.635227 0.345058
vt 0.603781 0.456390
vt 0.525201 0.456390
vt 0.403430 0.536515
vt 0.603781 0.456390
vt 0.725552 0.536515
vt 0.403430 0.536515
vt 0.257838 0.749333
vt 0.257838 0.768979
vt 0.159344 0.768979
vt 0.969637 0.749333
vt 0.869331 0.749333
vt 0.885584 0.749333
vt 0.285332 0.060663
vt 0.285332 0.076788
vt 0.032076 0.076788
vt 0.032076 0.060663
vt 0.023636 0.060663
vt 0.869331 0.749334
vt 0.869331 0.768980
vt 0.969637 0.768980
vt 0.159344 0.749334
vt 0.257838 0.749334
vt 0.241488 0.749334
vt 0.032076 0.060663
vt 0.032076 0.076788
vt 0.285332 0.076788
vt 0.285332 0.060663
vt 0.293771 0.060663
vt 0.961528 0.691787
vt 0.637099 0.749333
vt 0.023636 0.029478
vt 0.293771 0.029478
vt 0.167454 0.691787
vt 0.137743 0.749334
vt 0.023636 0.060663
vt 0.293771 0.029478
vt 0.961528 0.691787
vt 0.167454 0.691787
vt 0.167454 0.691787
vt 0.167454 0.691787
vt 0.314565 0.594988
vt 0.814417 0.594988
vt 0.961528 0.691787
vt 0.314565 0.594988
vt 0.814417 0.594988
vt 0.814417 0.594988
vt 0.403430 0.536515
vt 0.725552 0.536515
vt 0.814417 0.594988
vt 0.725552 0.536515
vt 0.403430 0.536515
vt 0.314565 0.594988
vt 0.314565 0.594988
vt 0.725552 0.536515
vt 0.518433 0.370497
vt 0.532015 0.370497
vt 0.532015 0.023633
vt 0.733728 0.427014
vt 0.519555 0.426345
vt 0.519555 0.375195
vt 0.981246 0.023633
vt 0.967665 0.023633
vt 0.967665 0.370497
vt 0.733728 0.426474
vt 0.519865 0.425902
vt 0.519865 0.374752
vt 0.518433 0.023633
vt 0.731057 0.023633
vt 0.731057 0.370497
vt 0.981246 0.370497
vt 0.768623 0.370497
vt 0.768623 0.023633
vt 0.982626 0.373837
vt 0.982626 0.424988
vt 0.769118 0.426474
vt 0.769118 0.375324
vt 0.982937 0.374280
vt 0.982937 0.425430
vt 0.769118 0.427014
vt 0.769118 0.375864
vt 0.032076 0.165153
vt 0.032076 0.209336
vt 0.285332 0.209336
vt 0.032076 0.120971
vt 0.285332 0.165153
vt 0.285332 0.120971
vt 0.869331 0.876645
vt 0.869331 0.930478
vt 0.969637 0.930478
vt 0.869331 0.822812
vt 0.969637 0.876645
vt 0.969637 0.822812
vt 0.876098 0.930478
vt 0.285332 0.165153
vt 0.285332 0.209336
vt 0.032076 0.209336
vt 0.285332 0.120971
vt 0.032076 0.165153
vt 0.032076 0.120971
vt 0.978631 0.930478
vt 0.978631 0.930478
vt 0.257838 0.876645
vt 0.257838 0.930478
vt 0.159344 0.930478
vt 0.257838 0.822812
vt 0.159344 0.876645
vt 0.159344 0.822812
vt 0.028562 0.209336
vt 0.028562 0.253519
vt 0.288846 0.253519
vt 0.876098 0.984311
vt 0.978631 0.984311
vt 0.288846 0.209336
vt 0.288846 0.253519
vt 0.028562 0.253519
vt 0.257776 0.930478
vt 0.257776 0.984311
vt 0.150351 0.984311
vt 0.150351 0.930478
vt 0.150351 0.930478
vt 0.969637 0.930478
vt 0.869992 0.930478
vt 0.869331 0.930478
vt 0.634954 0.930478
vt 0.498215 0.930478
vt 0.498241 0.930478
vt 0.495558 0.930478
vt 0.978631 0.984311
vt 0.869992 0.984311
vt 0.634954 0.984311
vt 0.498241 0.984311
vt 0.495558 0.984311
vt 0.281857 0.443243
vt 0.281857 0.497076
vt 0.045950 0.497076
vt 0.252883 0.984311
vt 0.252883 0.930478
vt 0.251031 0.930478
vt 0.496744 0.984311
vt 0.494027 0.930478
vt 0.496744 0.930478
vt 0.634954 0.984311
vt 0.634954 0.930478
vt 0.969637 0.768979
vt 0.969637 0.822812
vt 0.869331 0.822812
vt 0.633424 0.822812
vt 0.633424 0.768979
vt 0.633424 0.768979
vt 0.498215 0.768979
vt 0.498215 0.822812
vt 0.495558 0.822812
vt 0.281857 0.281744
vt 0.281857 0.335577
vt 0.045950 0.335577
vt 0.969637 0.876645
vt 0.869331 0.876645
vt 0.399873 0.384776
vt 0.445241 0.384776
vt 0.445241 0.384776
vt 0.498215 0.876645
vt 0.495558 0.876645
vt 0.281857 0.389410
vt 0.045950 0.389410
vt 0.633424 0.930478
vt 0.045950 0.443243
vt 0.257838 0.930478
vt 0.259650 0.930478
vt 0.633424 0.930478
vt 0.498215 0.930478
vt 0.257838 0.768980
vt 0.257838 0.822812
vt 0.259650 0.822812
vt 0.259650 0.768980
vt 0.495558 0.822812
vt 0.498215 0.768980
vt 0.498215 0.822812
vt 0.633424 0.822812
vt 0.633424 0.768980
vt 0.257838 0.876645
vt 0.259650 0.876645
vt 0.495558 0.876645
vt 0.498215 0.876645
vt 0.633424 0.876645
vt 0.495558 0.930478
vt 0.969637 0.749334
vt 0.991238 0.749334
vt 0.885584 0.749334
vt 0.637099 0.749334
vt 0.495558 0.749334
vt 0.498215 0.749334
vt 0.494681 0.749334
vt 0.259650 0.749334
vt 0.491882 0.749334
vt 0.495558 0.768980
vt 0.633424 0.749334
vt 0.241488 0.749333
vt 0.243397 0.749333
vt 0.259650 0.749333
vt 0.491882 0.749333
vt 0.633424 0.749333
vt 0.498215 0.749333
vt 0.494681 0.749333
vt 0.869331 0.768979
vt 0.495558 0.768979
vt 0.495558 0.749333
vt 0.259650 0.768979
vt 0.633424 0.876645
vt 0.159344 0.749333
vt 0.137743 0.749333
vt 0.159344 0.768980
vt 0.159344 0.876645
vt 0.159344 0.930478
vt 0.159344 0.822812
vt 0.150351 0.984311
vt 0.259650 0.930478
vt 0.259650 0.984311
vt 0.259650 0.822812
vt 0.259650 0.876645
vt 0.243397 0.749334
vt 0.399873 0.168261
vt 0.354505 0.384776
vt 0.354505 0.168261
vt 0.869331 0.876645
vt 0.354505 0.168261
vt 0.869331 0.822812
vt 0.445241 0.168261
vt 0.445241 0.168261
vt 0.399873 0.394472
vt 0.399873 0.384776
vt 0.346040 0.394472
vt 0.346040 0.158565
vt 0.399873 0.158565
vt 0.399873 0.168261
vt 0.453706 0.158565
vt 0.453706 0.394472
vt 0.354505 0.384776
vt 0.633424 0.822812
vt 0.633424 0.876645
vt 0.869331 0.768979
vt 0.014262 0.566154
vt 0.014262 0.671617
vt 0.122258 0.671617
vt 0.016187 0.567126
vt 0.016187 0.672588
vt 0.121126 0.610943
vt 0.122258 0.566154
vt 0.122258 0.609972
vt 0.014262 0.609972
vt 0.121126 0.610943
vt 0.016187 0.672588
vt 0.016187 0.567126
vt 0.017142 0.685720
vt 0.126533 0.685720
vt 0.126533 0.807625
vt 0.015643 0.566154
vt 0.015643 0.671617
vt 0.123638 0.671617
vt 0.016187 0.567126
vt 0.016187 0.672588
vt 0.121126 0.610943
vt 0.123638 0.566154
vt 0.123638 0.609972
vt 0.015643 0.609972
vt 0.121126 0.610943
vt 0.016187 0.672588
vt 0.016187 0.567126
vt 0.016045 0.684826
vt 0.125436 0.684826
vt 0.125436 0.806730
vt 0.525201 0.456390
vt 0.991238 0.749333
vt 0.293771 0.060663
vt 0.137743 0.711337
vt 0.991238 0.711337
vt 0.991238 0.711337
vt 0.961528 0.691787
vt 0.137743 0.711337
vt 0.023636 0.029478
vt 0.733728 0.375864
vt 0.733728 0.375324
vt 0.288846 0.209336
vt 0.028562 0.209336
vt 0.045950 0.281744
vt 0.122258 0.566154
vt 0.121126 0.567126
vt 0.014262 0.566154
vt 0.121126 0.567126
vt 0.017142 0.807625
vt 0.123638 0.566154
vt 0.121126 0.567126
vt 0.015643 0.566154
vt 0.121126 0.567126
vt 0.016045 0.806730
vn 0.0000 0.0000 1.0000
vn 0.0000 0.0000 -1.0000
vn 0.0000 -1.0000 0.0000
vn 1.0000 0.0000 0.0000
vn -1.0000 0.0000 0.0000
vn 0.0000 1.0000 0.0000
vn -0.8192 -0.5736 0.0000
vn 0.8192 -0.5736 0.0000
vn -0.5367 0.8438 0.0000
vn 0.5367 0.8438 -0.0000
vn -0.9957 0.0000 -0.0925
vn -0.9912 0.0000 -0.1324
vn 0.9979 0.0000 -0.0647
vn 0.9959 0.0000 -0.0907
s off
f 14/1/1 13/2/1 17/3/1
f 22/4/2 24/5/2 23/6/2
f 164/7/2 161/8/2 64/9/2
f 8/10/3 96/11/3 92/12/3
f 7/13/4 72/14/4 76/15/4
f 7/13/3 8/16/3 12/17/3
f 100/18/1 120/19/1 72/20/1
f 6/21/3 165/22/3 166/23/3
f 5/24/5 64/25/5 68/26/5
f 5/24/3 6/27/3 10/28/3
f 28/29/2 92/12/2 91/30/2
f 12/17/4 29/31/4 33/32/4
f 166/23/1 37/33/1 10/34/1
f 9/35/5 10/28/5 38/36/5
f 20/37/6 19/38/6 37/33/6
f 28/29/6 27/39/6 44/40/6
f 41/41/2 42/42/2 43/43/2
f 16/44/3 15/45/3 40/46/3
f 15/45/1 16/44/1 19/38/1
f 25/47/6 23/6/6 24/5/6
f 25/47/2 26/48/2 32/49/2
f 35/50/1 36/51/1 39/52/1
f 31/53/3 32/49/3 42/42/3
f 18/54/6 17/3/6 36/51/6
f 46/55/7 45/56/7 47/57/7
f 53/58/1 51/59/1 52/60/1
f 52/61/8 51/62/8 49/63/8
f 57/64/2 45/65/2 46/66/2
f 48/67/9 55/68/9 60/69/9
f 52/61/10 50/70/10 59/71/10
f 55/68/6 56/72/6 59/71/6
f 50/73/2 49/74/2 58/75/2
f 59/76/2 58/75/2 57/64/2
f 48/77/1 47/78/1 54/79/1
f 55/80/1 54/79/1 53/58/1
f 62/81/5 61/82/5 65/83/5
f 63/84/5 62/81/5 66/85/5
f 64/25/5 63/84/5 67/86/5
f 112/87/1 108/88/1 69/89/1
f 116/90/1 112/87/1 70/91/1
f 120/19/1 116/90/1 71/92/1
f 69/89/6 108/88/6 140/93/6
f 70/94/4 69/95/4 73/96/4
f 71/97/4 70/94/4 74/98/4
f 72/14/4 71/97/4 75/99/4
f 69/89/6 79/100/6 80/101/6
f 159/102/2 158/103/2 61/104/2
f 160/105/2 159/102/2 62/106/2
f 161/8/2 160/105/2 63/107/2
f 77/108/5 1/109/5 2/110/5
f 140/93/1 88/111/1 4/112/1
f 79/113/4 4/114/4 3/115/4
f 162/116/2 171/117/2 1/118/2
f 61/104/6 77/119/6 78/120/6
f 61/104/6 158/103/6 162/116/6
f 73/121/6 80/101/6 141/122/6
f 121/123/6 141/122/6 142/124/6
f 152/125/6 157/126/6 123/127/6
f 80/101/2 3/128/2 84/129/2
f 141/122/2 84/129/2 83/130/2
f 157/126/11 143/131/11 82/132/11
f 123/133/2 82/134/2 81/135/2
f 85/136/1 137/137/1 172/138/1
f 85/136/1 86/139/1 138/140/1
f 156/141/1 86/139/1 87/142/1
f 139/143/1 87/142/1 88/111/1
f 76/144/2 75/145/2 129/146/2
f 130/147/5 134/148/5 183/149/5
f 155/150/12 154/151/12 131/152/12
f 135/153/2 131/154/2 132/155/2
f 75/145/2 74/156/2 125/157/2
f 175/158/5 177/159/5 187/160/5
f 154/151/12 153/161/12 127/162/12
f 131/154/2 127/163/2 128/164/2
f 74/156/2 73/121/2 121/123/2
f 125/157/2 121/123/2 122/165/2
f 153/161/12 152/125/12 123/127/12
f 127/163/2 123/133/2 124/166/2
f 167/167/6 172/138/6 137/137/6
f 105/168/6 137/137/6 138/140/6
f 107/169/6 148/170/6 156/141/6
f 108/88/6 107/169/6 139/143/6
f 170/171/1 169/172/1 113/173/1
f 117/174/1 113/173/1 114/175/1
f 151/176/1 150/177/1 115/178/1
f 119/179/1 115/178/1 116/90/1
f 169/172/1 168/180/1 109/181/1
f 113/173/1 109/181/1 110/182/1
f 150/177/1 149/183/1 111/184/1
f 115/178/1 111/184/1 112/87/1
f 168/180/1 167/167/1 105/168/1
f 109/181/1 105/168/1 106/185/1
f 149/183/1 148/170/1 107/169/1
f 111/184/1 107/169/1 108/88/1
f 7/186/3 11/187/3 104/188/3
f 100/18/3 104/188/3 103/189/3
f 98/190/3 146/191/3 147/192/3
f 97/193/3 98/190/3 102/194/3
f 165/22/1 170/171/1 117/174/1
f 97/193/1 117/174/1 118/195/1
f 146/191/1 151/176/1 119/179/1
f 99/196/1 119/179/1 120/19/1
f 164/7/3 163/197/3 89/198/3
f 93/199/3 89/198/3 90/200/3
f 95/201/3 145/202/3 144/203/3
f 96/11/3 95/201/3 91/30/3
f 8/10/2 76/144/2 133/204/2
f 96/11/2 133/204/2 134/148/2
f 145/202/12 155/150/12 135/205/12
f 94/206/2 135/205/2 136/207/2
f 134/148/2 155/150/2 145/202/2
f 145/202/3 94/206/3 90/200/3
f 98/190/1 118/195/1 151/176/1
f 99/196/3 103/189/3 147/192/3
f 110/182/1 106/185/1 148/170/1
f 114/175/1 110/182/1 149/183/1
f 118/195/1 114/175/1 150/177/1
f 106/185/6 138/140/6 156/141/6
f 126/208/2 122/165/2 152/125/2
f 130/147/2 126/208/2 153/161/2
f 134/148/2 130/147/2 154/151/2
f 86/139/1 156/141/1 138/140/1
f 142/124/2 83/130/2 143/131/2
f 122/165/6 142/124/6 157/126/6
f 5/209/3 9/210/3 163/197/3
f 6/21/1 68/211/1 170/171/1
f 66/212/1 65/213/1 167/167/1
f 67/214/1 66/212/1 168/180/1
f 68/211/1 67/214/1 169/172/1
f 65/213/6 78/120/6 172/138/6
f 2/215/1 85/136/1 172/138/1
f 124/216/6 162/116/6 158/103/6
f 124/216/13 81/217/13 171/117/13
f 136/207/14 132/218/14 160/105/14
f 132/218/14 128/219/14 159/102/14
f 128/219/14 124/216/14 158/103/14
f 165/22/3 97/193/3 101/220/3
f 93/199/14 136/207/14 161/8/14
f 177/159/2 175/158/2 176/221/2
f 175/158/2 173/222/2 174/223/2
f 129/146/4 125/157/4 179/224/4
f 176/221/4 174/223/4 186/225/4
f 133/204/4 129/146/4 184/226/4
f 177/159/3 178/227/3 188/228/3
f 184/229/2 189/230/2 187/160/2
f 179/231/2 180/232/2 186/225/2
f 185/233/2 190/234/2 186/225/2
f 185/233/2 183/235/2 188/228/2
f 183/235/2 182/236/2 187/160/2
f 184/229/2 179/231/2 181/237/2
f 174/223/6 173/222/6 181/237/6
f 126/208/5 130/147/5 185/238/5
f 125/157/3 126/208/3 180/239/3
f 178/227/4 176/221/4 190/234/4
f 173/222/5 175/158/5 189/230/5
f 134/148/6 133/204/6 182/240/6
f 191/241/5 195/242/5 196/243/5
f 192/244/1 196/245/1 197/246/1
f 194/247/4 197/248/4 198/249/4
f 198/250/2 195/251/2 191/252/2
f 192/253/6 194/254/6 193/255/6
f 199/256/5 203/257/5 204/258/5
f 200/259/1 204/260/1 205/261/1
f 202/262/4 205/263/4 206/264/4
f 206/265/2 203/266/2 199/267/2
f 200/268/6 202/269/6 201/270/6
f 14/1/1 17/3/1 18/54/1
f 22/4/2 23/6/2 21/271/2
f 164/7/2 64/9/2 5/209/2
f 8/10/3 92/12/3 12/272/3
f 7/13/4 76/15/4 8/16/4
f 7/13/3 12/17/3 11/273/3
f 100/18/1 72/20/1 7/186/1
f 6/21/3 166/23/3 10/34/3
f 5/24/5 68/26/5 6/27/5
f 5/24/3 10/28/3 9/35/3
f 27/39/2 9/210/2 30/274/2
f 163/197/2 27/39/2 89/198/2
f 89/198/2 27/39/2 90/200/2
f 27/39/2 28/29/2 144/203/2
f 27/39/2 163/197/2 9/210/2
f 29/275/2 12/272/2 28/29/2
f 92/12/2 28/29/2 12/272/2
f 90/200/2 27/39/2 144/203/2
f 144/203/2 28/29/2 91/30/2
f 12/17/4 33/32/4 11/273/4
f 33/276/1 34/277/1 11/187/1
f 11/187/1 34/277/1 104/188/1
f 103/189/1 34/277/1 147/192/1
f 147/192/1 37/33/1 102/194/1
f 104/188/1 34/277/1 103/189/1
f 37/33/1 147/192/1 34/277/1
f 10/34/1 37/33/1 38/278/1
f 102/194/1 37/33/1 101/220/1
f 101/220/1 37/33/1 166/23/1
f 9/35/5 38/36/5 30/279/5
f 20/37/6 37/33/6 34/277/6
f 28/29/6 44/40/6 43/43/6
f 41/41/2 43/43/2 44/40/2
f 16/44/3 40/46/3 39/52/3
f 15/45/1 19/38/1 20/37/1
f 25/47/6 24/5/6 26/48/6
f 25/47/2 32/49/2 31/53/2
f 35/50/1 39/52/1 40/46/1
f 31/53/3 42/42/3 41/41/3
f 18/54/6 36/51/6 35/50/6
f 46/55/7 47/57/7 48/67/7
f 53/58/1 52/60/1 56/280/1
f 52/61/8 49/63/8 50/70/8
f 57/64/2 46/66/2 60/281/2
f 48/67/9 60/69/9 46/55/9
f 52/61/10 59/71/10 56/72/10
f 55/68/6 59/71/6 60/69/6
f 50/73/2 58/75/2 59/76/2
f 59/76/2 57/64/2 60/281/2
f 48/77/1 54/79/1 55/80/1
f 55/80/1 53/58/1 56/280/1
f 62/81/5 65/83/5 66/85/5
f 63/84/5 66/85/5 67/86/5
f 64/25/5 67/86/5 68/26/5
f 112/87/1 69/89/1 70/91/1
f 116/90/1 70/91/1 71/92/1
f 120/19/1 71/92/1 72/20/1
f 69/89/6 140/93/6 79/100/6
f 70/94/4 73/96/4 74/98/4
f 71/97/4 74/98/4 75/99/4
f 72/14/4 75/99/4 76/15/4
f 69/89/6 80/101/6 73/121/6
f 159/102/2 61/104/2 62/106/2
f 160/105/2 62/106/2 63/107/2
f 161/8/2 63/107/2 64/9/2
f 77/108/5 2/110/5 78/282/5
f 140/93/1 4/112/1 79/100/1
f 79/113/4 3/115/4 80/283/4
f 162/116/2 1/118/2 77/119/2
f 61/104/6 78/120/6 65/213/6
f 61/104/6 162/116/6 77/119/6
f 73/121/6 141/122/6 121/123/6
f 121/123/6 142/124/6 122/165/6
f 80/101/2 84/129/2 141/122/2
f 141/122/2 83/130/2 142/124/2
f 157/126/11 82/132/11 123/127/11
f 123/133/2 81/135/2 124/166/2
f 85/136/1 138/140/1 137/137/1
f 156/141/1 87/142/1 139/143/1
f 139/143/1 88/111/1 140/93/1
f 76/144/2 129/146/2 133/204/2
f 130/147/5 183/149/5 185/238/5
f 155/150/12 131/152/12 135/205/12
f 135/153/2 132/155/2 136/284/2
f 75/145/2 125/157/2 129/146/2
f 175/158/5 187/160/5 189/230/5
f 154/151/12 127/162/12 131/152/12
f 131/154/2 128/164/2 132/155/2
f 74/156/2 121/123/2 125/157/2
f 125/157/2 122/165/2 126/208/2
f 153/161/12 123/127/12 127/162/12
f 127/163/2 124/166/2 128/164/2
f 167/167/6 137/137/6 105/168/6
f 105/168/6 138/140/6 106/185/6
f 107/169/6 156/141/6 139/143/6
f 108/88/6 139/143/6 140/93/6
f 170/171/1 113/173/1 117/174/1
f 117/174/1 114/175/1 118/195/1
f 151/176/1 115/178/1 119/179/1
f 119/179/1 116/90/1 120/19/1
f 169/172/1 109/181/1 113/173/1
f 113/173/1 110/182/1 114/175/1
f 150/177/1 111/184/1 115/178/1
f 115/178/1 112/87/1 116/90/1
f 168/180/1 105/168/1 109/181/1
f 109/181/1 106/185/1 110/182/1
f 149/183/1 107/169/1 111/184/1
f 111/184/1 108/88/1 112/87/1
f 7/186/3 104/188/3 100/18/3
f 100/18/3 103/189/3 99/196/3
f 98/190/3 147/192/3 102/194/3
f 97/193/3 102/194/3 101/220/3
f 165/22/1 117/174/1 97/193/1
f 97/193/1 118/195/1 98/190/1
f 146/191/1 119/179/1 99/196/1
f 99/196/1 120/19/1 100/18/1
f 164/7/6 89/198/6 93/199/6
f 93/199/3 90/200/3 94/206/3
f 95/201/3 144/203/3 91/30/3
f 96/11/3 91/30/3 92/12/3
f 8/10/2 133/204/2 96/11/2
f 96/11/2 134/148/2 95/201/2
f 145/202/12 135/205/12 94/206/12
f 94/206/2 136/207/2 93/199/2
f 134/148/2 145/202/2 95/201/2
f 145/202/3 90/200/3 144/203/3
f 98/190/1 151/176/1 146/191/1
f 99/196/3 147/192/3 146/191/3
f 110/182/1 148/170/1 149/183/1
f 114/175/1 149/183/1 150/177/1
f 118/195/1 150/177/1 151/176/1
f 106/185/6 156/141/6 148/170/6
f 126/208/2 152/125/2 153/161/2
f 130/147/2 153/161/2 154/151/2
f 134/148/2 154/151/2 155/150/2
f 142/124/2 143/131/2 157/126/2
f 122/165/6 157/126/6 152/125/6
f 5/209/3 163/197/3 164/7/3
f 6/21/1 170/171/1 165/22/1
f 66/212/1 167/167/1 168/180/1
f 67/214/1 168/180/1 169/172/1
f 68/211/1 169/172/1 170/171/1
f 65/213/6 172/138/6 167/167/6
f 2/215/1 172/138/1 78/120/1
f 124/216/13 171/117/13 162/116/13
f 136/207/14 160/105/14 161/8/14
f 132/218/14 159/102/14 160/105/14
f 128/219/14 158/103/14 159/102/14
f 165/22/3 101/220/3 166/23/3
f 93/199/14 161/8/14 164/7/14
f 177/159/2 176/221/2 178/227/2
f 175/158/2 174/223/2 176/221/2
f 129/146/4 179/224/4 184/226/4
f 176/221/4 186/225/4 190/234/4
f 133/204/4 184/226/4 182/240/4
f 177/159/3 188/228/3 187/160/3
f 184/229/2 187/160/2 182/236/2
f 179/231/2 186/225/2 181/237/2
f 185/233/2 186/225/2 180/232/2
f 185/233/2 188/228/2 190/234/2
f 183/235/2 187/160/2 188/228/2
f 184/229/2 181/237/2 189/230/2
f 174/223/6 181/237/6 186/225/6
f 126/208/5 185/238/5 180/239/5
f 125/157/3 180/239/3 179/224/3
f 178/227/4 190/234/4 188/228/4
f 173/222/5 189/230/5 181/237/5
f 134/148/6 182/240/6 183/149/6
f 191/241/5 196/243/5 192/285/5
f 192/244/1 197/246/1 194/286/1
f 194/247/4 198/249/4 193/287/4
f 198/250/2 191/252/2 193/288/2
f 192/253/6 193/255/6 191/289/6
f 199/256/5 204/258/5 200/290/5
f 200/259/1 205/261/1 202/291/1
f 202/262/4 206/264/4 201/292/4
f 206/265/2 199/267/2 201/293/2
f 200/268/6 201/270/6 199/294/6
